PathFileType	4	(X/Y/Z) abd_2kg_1.trc																										
DataRate	CameraRate	NumFrames	NumMarkers	Units	OrigDataRate	OrigDataStartFrame	OrigNumFrames																					
100	100	24	9	mm	100	104	829																					
Frame#	Time	gu			centelbow			EpL			centpxt8			centijc7			ij			ts			aa			ai		
		X1	Y1	Z1	X2	Y2	Z2	X3	Y3	Z3	X4	Y4	Z4	X5	Y5	Z5	X6	Y6	Z6	X7	Y7	Z7	X8	Y8	Z8	X9	Y9	Z9  
103	1.03	-96.886	-12.128	154.941	-142.655	-252.229	190.169	-151.44	-242.143	219.503	-46.816	-153.158	-8.669	-46.816	31.938	-8.669	0	0	0	-129.885	25.305	35.642	-127.817	21.227	154.823	-143.795	-87.343	37.245
104	1.04	-96.924	-11.523	154.299	-142.567	-251.466	190.749	-151.486	-241.218	219.987	-46.816	-153.158	-8.669	-46.816	31.938	-8.669	0	0	0	-129.675	25.362	35.241	-127.796	21.611	154.435	-143.48	-87.294	37.128
105	1.05	-97.019	-11.08	154.312	-142.677	-250.819	192.06	-151.758	-240.39	221.184	-46.816	-153.158	-8.669	-46.816	31.938	-8.669	0	0	0	-129.43	25.56	34.939	-127.8	22.174	154.147	-143.101	-87.107	37.14
106	1.06	-97.119	-10.891	154.774	-142.957	-250.377	193.884	-152.217	-239.752	222.88	-46.816	-153.158	-8.669	-46.816	31.938	-8.669	0	0	0	-129.14	25.759	34.783	-127.841	22.766	154.006	-142.678	-86.917	37.316
107	1.07	-97.139	-10.894	155.064	-143.255	-250.096	195.562	-152.687	-239.268	224.427	-46.816	-153.158	-8.669	-46.816	31.938	-8.669	0	0	0	-128.858	25.763	34.678	-127.937	23.181	153.915	-142.308	-86.916	37.556
108	1.08	-97.131	-10.908	154.958	-143.511	-249.818	196.857	-153.101	-238.788	225.595	-46.816	-153.158	-8.669	-46.816	31.938	-8.669	0	0	0	-128.705	25.332	34.649	-128.187	23.174	153.896	-142.158	-87.336	37.881
109	1.09	-97.254	-10.654	154.712	-143.787	-249.275	198.062	-153.53	-238.045	226.67	-46.816	-153.158	-8.669	-46.816	31.938	-8.669	0	0	0	-128.695	24.534	34.866	-128.605	22.809	154.121	-142.229	-88.114	38.459
110	1.1	-97.542	-10.052	154.503	-144.155	-248.373	199.387	-154.051	-236.937	227.86	-46.816	-153.158	-8.669	-46.816	31.938	-8.669	0	0	0	-128.737	23.883	35.185	-129.055	22.586	154.446	-142.333	-88.746	39.137
111	1.11	-97.838	-9.35	154.189	-144.579	-247.338	200.68	-154.613	-235.688	229.017	-46.816	-153.158	-8.669	-46.816	31.938	-8.669	0	0	0	-128.764	23.824	35.098	-129.388	22.938	154.361	-142.309	-88.798	39.403
112	1.12	-98.015	-8.786	153.733	-144.959	-246.409	201.858	-155.112	-234.541	230.062	-46.816	-153.158	-8.669	-46.816	31.938	-8.669	0	0	0	-128.73	24.232	34.41	-129.544	23.751	153.674	-142.119	-88.394	39.076
113	1.13	-98.095	-8.305	153.424	-145.252	-245.554	203.158	-155.517	-233.473	231.231	-46.816	-153.158	-8.669	-46.816	31.938	-8.669	0	0	0	-128.674	24.593	33.572	-129.63	24.536	152.836	-141.892	-88.036	38.624
114	1.14	-98.19	-7.774	153.521	-145.558	-244.645	204.834	-155.937	-232.354	232.774	-46.816	-153.158	-8.669	-46.816	31.938	-8.669	0	0	0	-128.693	24.523	33.105	-129.821	24.932	152.367	-141.803	-88.1	38.58
115	1.15	-98.386	-7.235	153.881	-146.042	-243.692	206.809	-156.52	-231.186	234.616	-46.816	-153.158	-8.669	-46.816	31.938	-8.669	0	0	0	-128.705	24.102	32.983	-130.057	25.031	152.239	-141.749	-88.505	38.925
116	1.16	-98.612	-6.887	154.123	-146.729	-242.871	208.721	-157.27	-230.138	236.401	-46.816	-153.158	-8.669	-46.816	31.938	-8.669	0	0	0	-128.513	23.722	32.821	-130.133	25.221	152.068	-141.467	-88.866	39.273
117	1.17	-98.714	-6.885	154.081	-147.467	-242.349	210.332	-158.037	-229.388	237.895	-46.816	-153.158	-8.669	-46.816	31.938	-8.669	0	0	0	-128.083	23.615	32.477	-130.006	25.702	151.711	-140.911	-88.957	39.454
118	1.18	-98.697	-6.955	153.796	-148.067	-241.903	211.644	-158.652	-228.722	239.097	-46.816	-153.158	-8.669	-46.816	31.938	-8.669	0	0	0	-127.6	23.695	32.131	-129.838	26.349	151.348	-140.29	-88.86	39.612
119	1.19	-98.763	-6.601	153.314	-148.504	-241.069	212.769	-159.108	-227.68	240.113	-46.816	-153.158	-8.669	-46.816	31.938	-8.669	0	0	0	-127.356	23.772	31.901	-129.882	26.953	151.099	-139.908	-88.766	39.853
120	1.2	-98.982	-5.896	152.816	-148.918	-239.891	213.949	-159.544	-226.294	241.182	-46.816	-153.158	-8.669	-46.816	31.938	-8.669	0	0	0	-127.434	23.709	31.736	-130.185	27.378	150.916	-139.85	-88.813	40.129
121	1.21	-99.12	-5.376	152.52	-149.299	-238.856	215.395	-159.942	-225.043	242.512	-46.816	-153.158	-8.669	-46.816	31.938	-8.669	0	0	0	-127.543	23.506	31.59	-130.444	27.638	150.751	-139.835	-88.996	40.409
122	1.22	-98.975	-5.234	152.383	-149.465	-238.16	217.041	-160.122	-224.122	244.038	-46.816	-153.158	-8.669	-46.816	31.938	-8.669	0	0	0	-127.44	23.308	31.385	-130.409	27.897	150.528	-139.609	-89.174	40.633
123	1.23	-98.669	-5.195	152.214	-149.402	-237.557	218.685	-160.081	-223.294	245.555	-46.816	-153.158	-8.669	-46.816	31.938	-8.669	0	0	0	-127.246	23.243	31.031	-130.227	28.293	150.155	-139.271	-89.217	40.716
124	1.24	-98.459	-4.968	151.877	-149.315	-236.771	220.18	-160.029	-222.288	246.917	-46.816	-153.158	-8.669	-46.816	31.938	-8.669	0	0	0	-127.131	23.229	30.689	-130.149	28.743	149.791	-139.003	-89.208	40.813
125	1.25	-98.402	-4.529	151.293	-149.312	-235.765	221.452	-160.076	-221.061	248.049	-46.816	-153.158	-8.669	-46.816	31.938	-8.669	0	0	0	-127.001	23.056	30.654	-130.142	29.022	149.732	-138.748	-89.356	41.197
126	1.26	-98.269	-4.043	150.534	-149.231	-234.672	222.629	-160.061	-219.738	249.07	-46.816	-153.158	-8.669	-46.816	31.938	-8.669	0	0	0	-126.722	22.744	30.891	-130.027	29.126	149.942	-138.371	-89.642	41.814
